<svg width="169" height="36" viewBox="0 0 169 36" fill="none" xmlns="http://www.w3.org/2000/svg">
<g filter="url(#filter0_d_1_1493)">
<path d="M63.71 27V9.27H69.53C70.59 9.27 71.42 9.52 72.02 10.02C72.64 10.5 72.95 11.24 72.95 12.24V15.06C72.95 16.08 72.66 16.88 72.08 17.46C71.5 18.04 70.69 18.35 69.65 18.39C70.31 18.43 70.79 18.65 71.09 19.05C71.41 19.45 71.69 20.07 71.93 20.91L73.7 27H71.12L69.59 21.06C69.45 20.52 69.26 20.04 69.02 19.62C68.8 19.2 68.45 18.99 67.97 18.99H66.11V27H63.71ZM66.11 17.34H68.45C69.27 17.34 69.84 17.14 70.16 16.74C70.5 16.34 70.67 15.75 70.67 14.97V12.63C70.67 11.93 70.51 11.42 70.19 11.1C69.89 10.76 69.41 10.59 68.75 10.59H66.11V17.34ZM75.5905 27V9.27H83.3905V10.92H78.0205V16.86H82.3705V18.66H78.0205V25.38H83.3905V27H75.5905ZM85.1858 27V9.27H90.7358C91.5358 9.27 92.2058 9.39 92.7458 9.63C93.2858 9.85 93.6958 10.22 93.9758 10.74C94.2758 11.26 94.4258 11.95 94.4258 12.81V23.16C94.4258 24.16 94.2558 24.94 93.9158 25.5C93.5958 26.06 93.1358 26.45 92.5358 26.67C91.9558 26.89 91.2558 27 90.4358 27H85.1858ZM87.5858 25.74H90.1058C90.7258 25.74 91.2158 25.57 91.5758 25.23C91.9358 24.89 92.1158 24.25 92.1158 23.31V13.08C92.1158 12.14 91.9358 11.5 91.5758 11.16C91.2158 10.82 90.7258 10.65 90.1058 10.65H87.5858V25.74Z" fill="white"/>
<path d="M101.798 27V9.27H104.618L108.068 22.89L111.578 9.27H114.308V27H112.268V12.96L108.878 27H107.258L103.868 12.96V27H101.798ZM115.845 27L119.565 9.27H122.685L126.375 27H123.825L122.985 23.1H119.085L118.305 27H115.845ZM119.175 21.9H122.925L121.065 11.79L119.175 21.9ZM127.874 27V9.27H129.914L134.954 22.29V9.27H137.024V27H134.954L129.944 14.55V27H127.874ZM143.562 27.33C142.842 27.33 142.182 27.23 141.582 27.03C140.982 26.83 140.492 26.43 140.112 25.83C139.752 25.21 139.572 24.28 139.572 23.04V12.99C139.572 11.91 139.772 11.09 140.172 10.53C140.572 9.95 141.112 9.56 141.792 9.36C142.492 9.14 143.292 9.03 144.192 9.03C145.092 9.03 145.882 9.14 146.562 9.36C147.262 9.58 147.812 9.97 148.212 10.53C148.612 11.09 148.812 11.91 148.812 12.99V15.33H146.562V12.93C146.562 12.23 146.462 11.71 146.262 11.37C146.062 11.01 145.782 10.78 145.422 10.68C145.082 10.56 144.682 10.5 144.222 10.5C143.762 10.5 143.352 10.56 142.992 10.68C142.652 10.78 142.382 11.01 142.182 11.37C141.982 11.71 141.882 12.23 141.882 12.93V23.49C141.882 24.21 141.982 24.75 142.182 25.11C142.382 25.45 142.652 25.68 142.992 25.8C143.352 25.9 143.762 25.95 144.222 25.95C144.902 25.95 145.462 25.74 145.902 25.32C146.342 24.9 146.562 24.29 146.562 23.49V19.86H144.492V18.48H148.812V27H147.072L146.952 25.38C146.892 25.5 146.822 25.62 146.742 25.74C146.682 25.84 146.622 25.93 146.562 26.01C146.302 26.39 145.932 26.71 145.452 26.97C144.972 27.21 144.342 27.33 143.562 27.33ZM149.963 27L153.683 9.27H156.803L160.493 27H157.943L157.103 23.1H153.203L152.423 27H149.963ZM153.293 21.9H157.043L155.183 11.79L153.293 21.9Z" fill="#ED2647"/>
</g>
<rect x="31" width="12" height="34" fill="#FAC8D0"/>
<rect x="16" width="12" height="34" fill="white"/>
<rect x="46" width="12" height="34" fill="#ED2647"/>
<defs>
<filter id="filter0_d_1_1493" x="59.71" y="9.03003" width="104.783" height="26.3" filterUnits="userSpaceOnUse" color-interpolation-filters="sRGB">
<feFlood flood-opacity="0" result="BackgroundImageFix"/>
<feColorMatrix in="SourceAlpha" type="matrix" values="0 0 0 0 0 0 0 0 0 0 0 0 0 0 0 0 0 0 127 0" result="hardAlpha"/>
<feOffset dy="4"/>
<feGaussianBlur stdDeviation="2"/>
<feComposite in2="hardAlpha" operator="out"/>
<feColorMatrix type="matrix" values="0 0 0 0 0 0 0 0 0 0 0 0 0 0 0 0 0 0 0.25 0"/>
<feBlend mode="normal" in2="BackgroundImageFix" result="effect1_dropShadow_1_1493"/>
<feBlend mode="normal" in="SourceGraphic" in2="effect1_dropShadow_1_1493" result="shape"/>
</filter>
</defs>
</svg>
